<svg width="160" height="42" viewBox="0 0 160 42" fill="none" xmlns="http://www.w3.org/2000/svg">
<path d="M0 0H109L93.9928 42H0V0Z" fill="#1B2426"/>
<path d="M108.43 0H160V42H95L108.43 0Z" fill="#F7F6F6"/>
<path d="M30.1445 17.1855C30.2292 14.9655 30.3301 13.4323 30.4473 12.5859C30.5579 11.8177 30.9811 11.4336 31.7168 11.4336C32.1009 11.4336 32.4102 11.5573 32.6445 11.8047C32.8789 12.0521 32.9961 12.3548 32.9961 12.7129C32.9961 13.6569 32.9212 15.0632 32.7715 16.9316C32.6283 18.8001 32.5566 20.2064 32.5566 21.1504C32.5566 23.4551 32.6315 24.998 32.7812 25.7793C32.8008 25.8835 32.8105 25.9779 32.8105 26.0625C32.8105 26.4206 32.6803 26.7168 32.4199 26.9512C32.1595 27.179 31.8568 27.293 31.5117 27.293C31.0299 27.293 30.6719 27.0781 30.4375 26.6484C29.9948 26.9154 29.5358 27.1139 29.0605 27.2441C28.5853 27.3809 28.0938 27.4492 27.5859 27.4492C26.1276 27.4492 24.9167 26.9837 23.9531 26.0527C22.9701 25.1022 22.4785 23.8913 22.4785 22.4199C22.4785 20.6686 22.9733 19.2559 23.9629 18.1816C24.9525 17.1009 26.2448 16.5605 27.8398 16.5605C28.3281 16.5605 28.7643 16.6126 29.1484 16.7168C29.5326 16.821 29.8646 16.9772 30.1445 17.1855ZM29.9492 20.2617C29.7344 19.8516 29.4544 19.5456 29.1094 19.3438C28.7643 19.1419 28.3542 19.041 27.8789 19.041C26.9154 19.041 26.1927 19.321 25.7109 19.8809C25.2292 20.4342 24.9883 21.2676 24.9883 22.3809C24.9883 23.084 25.2487 23.6862 25.7695 24.1875C26.2904 24.6888 26.8958 24.9395 27.5859 24.9395C28.0872 24.9395 28.4681 24.8809 28.7285 24.7637C28.9043 24.6855 29.2038 24.4772 29.627 24.1387C29.7376 24.0475 29.8451 23.9466 29.9492 23.8359C29.9362 23.5234 29.9362 22.332 29.9492 20.2617ZM39.6758 27.4492C38.1198 27.4492 36.847 27.0781 35.8574 26.3359C34.7637 25.5156 34.2168 24.36 34.2168 22.8691C34.2168 21.222 34.6497 19.8288 35.5156 18.6895C36.4792 17.4264 37.778 16.7949 39.4121 16.7949C40.5449 16.7949 41.4857 16.9772 42.2344 17.3418C43.2174 17.8236 43.709 18.5723 43.709 19.5879C43.709 20.304 43.3086 20.9388 42.5078 21.4922C42.1432 21.7461 41.4108 22.1172 40.3105 22.6055L37.0195 24.0605C37.332 24.3991 37.7096 24.653 38.1523 24.8223C38.5951 24.9915 39.1029 25.0762 39.6758 25.0762C40.5482 25.0762 41.2871 24.8971 41.8926 24.5391C42.4329 24.2201 42.8659 24.0605 43.1914 24.0605C43.8685 24.0605 44.207 24.3893 44.207 25.0469C44.207 25.7891 43.6634 26.3945 42.5762 26.8633C41.6647 27.2539 40.6979 27.4492 39.6758 27.4492ZM39.4121 19.1582C38.8066 19.1582 38.2891 19.36 37.8594 19.7637C37.4297 20.1673 37.0846 20.7728 36.8242 21.5801C37.5599 21.2611 38.2923 20.9453 39.0215 20.6328C39.9004 20.2357 40.6003 19.8678 41.1211 19.5293C40.6849 19.2819 40.1152 19.1582 39.4121 19.1582ZM52.8398 19.1387C52.7031 19.1387 52.5404 19.1354 52.3516 19.1289C52.1693 19.1159 52.0098 19.1094 51.873 19.1094C51.6061 19.1094 51.2969 19.1354 50.9453 19.1875C51.0625 21.8177 51.1211 23.5365 51.1211 24.3438C51.1211 24.4284 51.1243 24.5879 51.1309 24.8223C51.1374 25.0501 51.1406 25.2357 51.1406 25.3789C51.1406 26.8763 50.6686 27.625 49.7246 27.625C49.3665 27.625 49.0573 27.5143 48.7969 27.293C48.5104 27.0586 48.3672 26.7656 48.3672 26.4141C48.3672 26.1797 48.377 25.8281 48.3965 25.3594C48.416 24.8906 48.4258 24.5391 48.4258 24.3047C48.4258 23.5169 48.3672 21.8307 48.25 19.2461C47.8464 19.2266 47.2344 19.1745 46.4141 19.0898C45.6003 18.9987 45.1934 18.5755 45.1934 17.8203C45.1934 17.4557 45.3171 17.1465 45.5645 16.8926C45.8118 16.6387 46.1309 16.5117 46.5215 16.5117C46.7624 16.5117 47.3158 16.5508 48.1816 16.6289C48.1751 16.4206 48.1589 16.0755 48.1328 15.5938C48.1068 15.1771 48.0938 14.8548 48.0938 14.627C48.0938 14.2624 48.2272 13.9596 48.4941 13.7188C48.7611 13.4779 49.0833 13.3574 49.4609 13.3574C50.4245 13.3574 50.9062 14.168 50.9062 15.7891L50.8867 16.5898C51.2904 16.5312 51.6191 16.502 51.873 16.502C52.6217 16.502 53.1328 16.5508 53.4062 16.6484C53.9271 16.8307 54.1875 17.2279 54.1875 17.8398C54.1875 18.2109 54.0605 18.5202 53.8066 18.7676C53.5527 19.015 53.2305 19.1387 52.8398 19.1387ZM63.8066 27.6445C63.5072 27.6445 63.0319 27.319 62.3809 26.668C61.7819 26.9544 61.2546 27.1693 60.7988 27.3125C60.3431 27.4622 59.9557 27.5371 59.6367 27.5371C58.0677 27.5371 56.8893 27.1172 56.1016 26.2773C55.3203 25.4375 54.9297 24.181 54.9297 22.5078C54.9297 20.9388 55.5091 19.5977 56.668 18.4844C57.8268 17.3646 59.2135 16.8047 60.8281 16.8047C61.4466 16.8047 62.1628 16.9805 62.9766 17.332C63.9596 17.7552 64.4512 18.2467 64.4512 18.8066C64.4512 19.041 64.3763 19.2461 64.2266 19.4219C64.1615 19.6823 64.1094 20.0111 64.0703 20.4082C64.0378 20.7988 64.0215 21.2578 64.0215 21.7852C64.0215 23.0286 64.1094 23.9238 64.2852 24.4707C64.3047 24.5293 64.4544 24.8678 64.7344 25.4863C64.9883 26.0462 65.1152 26.3652 65.1152 26.4434C65.1152 26.7884 64.9818 27.0749 64.7148 27.3027C64.4544 27.5306 64.1517 27.6445 63.8066 27.6445ZM61.3848 20.9453C61.3848 20.737 61.3978 20.4993 61.4238 20.2324C61.4564 19.959 61.502 19.6562 61.5605 19.3242C61.4303 19.2591 61.3132 19.2135 61.209 19.1875C61.1113 19.1549 61.0267 19.1387 60.9551 19.1387C60.0697 19.1387 59.2949 19.487 58.6309 20.1836C57.9668 20.8737 57.6348 21.6745 57.6348 22.5859C57.6348 23.4583 57.791 24.1159 58.1035 24.5586C58.416 24.9948 58.8848 25.2129 59.5098 25.2129C59.9134 25.2129 60.2943 25.1478 60.6523 25.0176C61.0169 24.8809 61.3587 24.6823 61.6777 24.4219C61.4824 22.8724 61.3848 21.7135 61.3848 20.9453ZM68.7188 15.2617C68.3021 15.2617 67.9408 15.1217 67.6348 14.8418C67.3288 14.5618 67.1758 14.2201 67.1758 13.8164C67.1758 13.4128 67.3288 13.071 67.6348 12.791C67.9408 12.5111 68.3021 12.3711 68.7188 12.3711C69.1354 12.3711 69.4935 12.5111 69.793 12.791C70.099 13.071 70.252 13.4128 70.252 13.8164C70.252 14.2201 70.099 14.5618 69.793 14.8418C69.4935 15.1217 69.1354 15.2617 68.7188 15.2617ZM69.5488 22.4199C69.5488 22.791 69.5586 23.3867 69.5781 24.207C69.6042 25.0273 69.6172 25.623 69.6172 25.9941C69.6172 26.3717 69.4902 26.6842 69.2363 26.9316C68.9824 27.1725 68.6602 27.293 68.2695 27.293C67.8789 27.293 67.5566 27.1725 67.3027 26.9316C67.0488 26.6842 66.9219 26.3717 66.9219 25.9941C66.9219 25.623 66.9089 25.0273 66.8828 24.207C66.8633 23.3867 66.8535 22.791 66.8535 22.4199C66.8535 21.8405 66.8861 21.1146 66.9512 20.2422C67.0163 19.3698 67.0488 18.6439 67.0488 18.0645C67.0488 17.6868 67.1758 17.3776 67.4297 17.1367C67.6836 16.8893 68.0059 16.7656 68.3965 16.7656C68.7871 16.7656 69.1094 16.8893 69.3633 17.1367C69.6172 17.3776 69.7441 17.6868 69.7441 18.0645C69.7441 18.6439 69.7116 19.3698 69.6465 20.2422C69.5814 21.1146 69.5488 21.8405 69.5488 22.4199ZM75.1055 25.5645C75.1055 26.8014 74.6562 27.4199 73.7578 27.4199C73.3672 27.4199 73.0449 27.2962 72.791 27.0488C72.5371 26.8014 72.4102 26.4824 72.4102 26.0918V12.5859C72.4102 12.2083 72.5469 11.8991 72.8203 11.6582C73.0807 11.4368 73.403 11.3262 73.7871 11.3262C74.1712 11.3262 74.487 11.4434 74.7344 11.6777C74.9818 11.9056 75.1055 12.2083 75.1055 12.5859V25.5645Z" fill="white"/>
<path d="M139.437 26.7183L148.186 21.0278C148.87 20.5839 148.87 19.8623 148.186 19.4185L139.437 13.7279C138.752 13.2829 137.645 13.2829 136.962 13.7279C136.28 14.1729 136.278 14.8933 136.962 15.3372L142.725 19.085H125.95C124.984 19.085 124.2 19.5949 124.2 20.2231C124.2 20.8514 124.984 21.3612 125.95 21.3612H142.725L136.962 25.1091C136.621 25.331 136.449 25.6223 136.449 25.9137C136.449 26.2051 136.621 26.4964 136.962 26.7183C137.646 27.1633 138.754 27.1633 139.437 26.7183Z" fill="#1B2426"/>
</svg>
