<svg width="500" height="500" viewBox="0 0 500 500" fill="none" xmlns="http://www.w3.org/2000/svg">
<path d="M391.25 278.672C361.719 307.932 310.286 322.339 284.469 328.021C318.427 312.391 356.359 285.188 387.729 238.255C387.729 238.245 399.109 251.151 391.25 278.672Z" fill="#1B2426"/>
<mask id="mask0_573_1147" style="mask-type:luminance" maskUnits="userSpaceOnUse" x="34" y="237" width="408" height="195">
<path d="M34.521 237.333H441.333V432H34.521V237.333Z" fill="white"/>
</mask>
<g mask="url(#mask0_573_1147)">
<path d="M34.521 385.318C34.521 385.318 67.3595 297.068 138.495 286.812C209.646 276.552 221.953 305.964 301.995 277.229C301.995 277.229 315.672 320.328 230.167 331.271C230.167 331.271 221.276 348.37 247.953 348.37C274.636 348.37 369.037 336.453 434.714 238.234C434.714 238.234 465.49 273.125 390.932 350.422C316.37 427.719 221.964 467.411 34.521 385.318Z" fill="#1B2426"/>
</g>
<mask id="mask1_573_1147" style="mask-type:luminance" maskUnits="userSpaceOnUse" x="124" y="50" width="252" height="246">
<path d="M124.557 50H375.375V296H124.557V50Z" fill="white"/>
</mask>
<g mask="url(#mask1_573_1147)">
<path fill-rule="evenodd" clip-rule="evenodd" d="M375.385 176.443C374.01 106.635 316.26 50 246.453 50C185.427 50 135.344 93.2031 124.557 150.635C128.364 138.26 135.823 122.344 150.312 108.859C178.708 82.3646 200.234 79.5052 200.234 79.5052C135.557 113.562 118.953 194.266 142.271 242.443C155.864 263.969 175.693 281.26 199.125 291.781C205.677 293.37 212.026 293.63 211.87 284.802H211.917C207.953 269.677 199.177 240.75 194.838 236.677C189.177 231.385 176.38 234.245 171.25 227.844C166.125 221.391 147.135 140.109 147.135 140.109C147.135 140.109 148.828 138.156 150.573 138.844C152.318 139.635 173.37 212.089 175.484 213.729C177.599 215.365 177.229 214.411 178.443 214.469C179.344 214.203 180.614 214.042 180.875 210.656C181.14 207.219 157.661 139.583 157.609 138.469C157.505 137.307 157.239 133.766 159.885 134.24C162.526 134.667 187.437 205.052 188.969 206.797C190.552 208.542 191.453 208.12 192.62 208.016C193.411 207.38 194.099 207.328 194.099 205.104C194.151 202.938 166.703 133.344 168.396 131.333C170.088 129.271 172.255 132.125 172.943 133.078C173.635 134.031 200.39 200.557 202.823 202.938C205.203 205.318 206.208 204.682 207.057 204.365C208.057 203.521 208.432 204.422 209.01 201.828C209.542 199.182 177.76 130.646 178.552 128.953C179.396 127.318 182.042 127.734 182.042 127.734C182.042 127.734 221.015 201.828 221.385 209.917C221.755 218.062 209.963 224.885 209.224 232.5C208.588 238.37 222.448 270.047 230.375 286.333C232.068 289.401 234.922 293.583 238.677 295.167C244.974 297.865 247.51 295.328 247.562 288.979L248.307 217.479C248.042 215.047 247.614 212.672 246.771 210.922C245.818 209.073 244.443 207.646 243.172 206.693C230.693 202.516 221.547 190.406 221.12 168.88C220.646 141.594 234.344 109.438 252.057 109.438C269.776 109.438 284.739 141.594 285.271 168.88C285.693 189.188 277.969 201.089 266.76 205.901C265.437 207.062 263.64 208.859 262.531 211.031C261.792 212.562 261.417 215.26 261.312 217.906L264.062 287.552H264.114C264.114 287.552 266.338 294.479 270.094 294.266C271.995 294.161 273.265 291.781 274.057 289.51H274.005C274.005 289.51 274.271 288.557 274.797 286.865C275.01 285.859 275.114 285.172 275.114 285.172L275.276 285.224C281.781 263.333 311.026 164.547 313.245 154.922C315.781 144.078 322.552 119.328 329.906 123.505C337.255 127.682 340.161 158.938 335.776 193.104C331.333 227.266 323.292 247.521 315.042 256.031C306.739 264.495 297.114 258.781 293.255 269.359C290.661 276.552 288.864 284.589 287.969 289.089C288.234 290.562 289.234 293.948 292.724 294.479C294.526 294.797 296.588 294.375 298.385 293.844C299.812 293.214 301.292 292.63 302.719 291.943C346.453 272.214 376.385 227.953 375.385 176.443Z" fill="#1B2426"/>
</g>
</svg>
